<svg xmlns="http://www.w3.org/2000/svg" height="20px" viewBox="0 0 512 512" width="20px"><path d="m456.832031 80.335938h-35.332031v215.832031c0 46.960937-38.203125 85.167969-85.164062 85.167969h-142.027344l-44.089844 44.085937c7.621094 3.980469 16.269531 6.246094 25.445312 6.246094h154.457032l75.9375 75.9375c2.871094 2.871093 6.707031 4.394531 10.613281 4.394531 1.929687 0 3.878906-.371094 5.734375-1.140625 5.605469-2.324219 9.257812-7.792969 9.257812-13.859375v-65.332031h25.167969c30.421875 0 55.167969-24.75 55.167969-55.167969v-241c0-30.417969-24.746094-55.164062-55.167969-55.164062zm0 0" fill="#FFFFFF"/><path d="m204.851562 175.667969c0-5.019531-4.082031-9.101563-9.101562-9.101563s-9.101562 4.082032-9.101562 9.101563c0 5.015625 4.082031 9.097656 9.101562 9.097656s9.101562-4.082031 9.101562-9.097656zm0 0" fill="#FFFFFF"/><path d="m276.085938 184.765625c5.015624 0 9.097656-4.082031 9.097656-9.097656 0-5.019531-4.082032-9.101563-9.097656-9.101563-5.019532 0-9.105469 4.082032-9.105469 9.101563 0 5.015625 4.085937 9.097656 9.105469 9.097656zm0 0" fill="#FFFFFF"/><path d="m115.414062 166.566406c-5.015624 0-9.097656 4.082032-9.097656 9.101563 0 5.015625 4.082032 9.097656 9.097656 9.097656 5.019532 0 9.101563-4.082031 9.101563-9.097656 0-5.019531-4.082031-9.101563-9.101563-9.101563zm0 0" fill="#FFFFFF"/><path d="m336.335938 351.335938c30.417968 0 55.164062-24.75 55.164062-55.167969v-241c0-30.421875-24.746094-55.167969-55.164062-55.167969h-281.171876c-30.417968 0-55.164062 24.746094-55.164062 55.167969v241c0 30.417969 24.746094 55.167969 55.164062 55.167969h25.171876v65.332031c0 6.066406 3.652343 11.535156 9.257812 13.855469 1.855469.769531 3.804688 1.144531 5.734375 1.144531 3.90625 0 7.742187-1.523438 10.609375-4.394531l75.941406-75.9375zm-60.25-214.769532c21.558593 0 39.097656 17.539063 39.097656 39.101563 0 21.558593-17.539063 39.097656-39.097656 39.097656-21.5625 0-39.105469-17.539063-39.105469-39.097656 0-21.5625 17.542969-39.101563 39.105469-39.101563zm-160.671876 78.199219c-21.558593 0-39.097656-17.539063-39.097656-39.097656 0-21.5625 17.539063-39.101563 39.097656-39.101563 21.5625 0 39.101563 17.539063 39.101563 39.101563 0 21.558593-17.539063 39.097656-39.101563 39.097656zm41.234376-39.097656c0-21.5625 17.542968-39.101563 39.101562-39.101563s39.101562 17.539063 39.101562 39.101563c0 21.558593-17.542968 39.097656-39.101562 39.097656s-39.101562-17.539063-39.101562-39.097656zm0 0" fill="#FFFFFF"/></svg>
